M48
; DRILL file {KiCad 6.0.0-rc1-unknown-e7fa02a~66~ubuntu18.04.1} date Sat 20 Jun 2020 12:06:23 PM PDT
; FORMAT={-:-/ absolute / inch / decimal}
; #@! TF.CreationDate,2020-06-20T12:06:23-07:00
; #@! TF.GenerationSoftware,Kicad,Pcbnew,6.0.0-rc1-unknown-e7fa02a~66~ubuntu18.04.1
; #@! TF.FileFunction,Plated,1,2,PTH
FMAT,2
INCH
T1C0.0157
T2C0.0315
T3C0.0394
T4C0.0488
T5C0.1260
T6C0.1969
T7C0.3937
%
G90
G05
T1
X14.2549Y-11.4521
X14.5416Y-11.7206
X14.6192Y-11.4725
X14.6935Y-11.5216
X15.028Y-12.2049
X16.0647Y-10.3985
X16.1444Y-11.5904
X16.2704Y-9.9018
X16.4841Y-9.636
X16.5335Y-10.0236
X16.5569Y-9.7445
X16.5854Y-10.0918
X16.6088Y-10.2728
X16.8923Y-10.1151
X16.9488Y-9.4608
X16.9615Y-10.3967
X16.9713Y-8.4042
X17.1288Y-9.7123
X17.2549Y-11.7291
X17.2711Y-9.5382
X17.4977Y-11.3453
X17.5489Y-11.3582
X19.5917Y-9.9067
X19.8452Y-9.4043
X19.9008Y-9.4075
X19.9214Y-10.2123
T2
X19.76Y-10.81
X19.76Y-10.91
X19.76Y-11.01
X19.76Y-11.11
X19.76Y-11.21
X19.76Y-11.31
X19.76Y-11.41
X19.76Y-11.51
X20.06Y-10.81
X20.06Y-10.91
X20.06Y-11.01
X20.06Y-11.11
X20.06Y-11.21
X20.06Y-11.31
X20.06Y-11.41
X20.06Y-11.51
X17.91Y-10.79
X17.91Y-10.89
X17.91Y-10.99
X17.91Y-11.09
X17.91Y-11.19
X17.91Y-11.29
X17.91Y-11.39
X17.91Y-11.49
X18.21Y-10.79
X18.21Y-10.89
X18.21Y-10.99
X18.21Y-11.09
X18.21Y-11.19
X18.21Y-11.29
X18.21Y-11.39
X18.21Y-11.49
X17.81Y-8.92
X17.81Y-9.02
X17.81Y-9.12
X17.81Y-9.22
X17.81Y-9.32
X17.81Y-9.42
X17.81Y-9.52
X17.81Y-9.62
X17.81Y-9.72
X17.81Y-9.82
X17.13Y-8.61
X17.13Y-8.71
X17.13Y-8.81
X17.13Y-8.91
X17.13Y-9.01
X17.13Y-9.11
X17.13Y-9.21
X17.13Y-9.31
X17.13Y-9.41
X17.13Y-9.51
X16.35Y-9.18
X16.35Y-9.28
X16.35Y-9.38
X16.35Y-9.48
X16.35Y-9.58
X16.35Y-9.68
X16.35Y-9.78
X16.35Y-9.88
X16.35Y-9.98
X16.35Y-10.08
X20.0Y-8.03
X20.0Y-8.13
X20.0Y-8.23
X20.0Y-8.33
X20.0Y-8.43
X20.0Y-8.53
X20.0Y-8.63
X20.0Y-8.73
X20.0Y-8.83
X20.0Y-8.93
X16.6Y-8.59
X16.6Y-8.69
X16.6Y-8.79
X16.6Y-8.89
X16.6Y-8.99
X16.6Y-9.09
X16.6Y-9.19
X16.6Y-9.29
X16.6Y-9.39
X16.6Y-9.49
X16.6Y-9.59
X16.6Y-9.69
X16.6Y-9.79
X16.6Y-9.89
X16.9Y-8.59
X16.9Y-8.69
X16.9Y-8.79
X16.9Y-8.89
X16.9Y-8.99
X16.9Y-9.09
X16.9Y-9.19
X16.9Y-9.29
X16.9Y-9.39
X16.9Y-9.49
X16.9Y-9.59
X16.9Y-9.69
X16.9Y-9.79
X16.9Y-9.89
X17.21Y-9.95
X17.21Y-10.05
X17.21Y-10.15
X17.21Y-10.25
X17.21Y-10.35
X17.21Y-10.45
X17.21Y-10.55
X17.21Y-10.65
X17.21Y-10.75
X17.21Y-10.85
T3
X17.47Y-7.69
X17.47Y-7.79
X17.47Y-7.89
X17.47Y-7.99
X17.47Y-8.09
X19.2913Y-10.0197
X19.2913Y-10.5118
X19.4882Y-10.0197
X19.4882Y-10.5118
X19.2913Y-9.2717
X19.2913Y-9.7638
X19.4882Y-9.2717
X19.4882Y-9.7638
X9.9803Y-12.1063
X9.9803Y-12.5984
X10.1772Y-12.1063
X10.1772Y-12.5984
X20.5Y-9.59
X20.6Y-9.59
X20.7Y-9.59
X20.8Y-9.59
X20.9Y-9.59
X21.0Y-9.59
X20.5012Y-8.4071
X20.6012Y-8.4071
X20.7012Y-8.4071
X20.8012Y-8.4071
X20.9012Y-8.4071
X21.0012Y-8.4071
X12.9331Y-12.1063
X12.9331Y-12.5984
X13.1299Y-12.1063
X13.1299Y-12.5984
X18.3071Y-10.0197
X18.3071Y-10.5118
X18.5039Y-10.0197
X18.5039Y-10.5118
X16.8701Y-12.1063
X16.8701Y-12.5984
X17.0669Y-12.1063
X17.0669Y-12.5984
X11.9488Y-12.1063
X11.9488Y-12.5984
X12.1457Y-12.1063
X12.1457Y-12.5984
X13.9135Y-12.0963
X13.9135Y-12.5884
X14.1104Y-12.0963
X14.1104Y-12.5884
X20.5012Y-11.9504
X20.6012Y-11.9504
X20.7012Y-11.9504
X20.8012Y-11.9504
X20.9012Y-11.9504
X21.0012Y-11.9504
X14.9016Y-12.1063
X14.9016Y-12.5984
X15.0984Y-12.1063
X15.0984Y-12.5984
X19.2913Y-7.7756
X19.2913Y-8.2677
X19.4882Y-7.7756
X19.4882Y-8.2677
X19.2913Y-8.5236
X19.2913Y-9.0157
X19.4882Y-8.5236
X19.4882Y-9.0157
X18.3071Y-9.2717
X18.3071Y-9.7638
X18.5039Y-9.2717
X18.5039Y-9.7638
X13.36Y-11.8
X13.36Y-11.9
X13.46Y-11.8
X13.46Y-11.9
X13.56Y-11.8
X13.56Y-11.9
X13.66Y-11.8
X13.66Y-11.9
X13.76Y-11.8
X13.76Y-11.9
X13.86Y-11.8
X13.86Y-11.9
X13.96Y-11.8
X13.96Y-11.9
X14.06Y-11.8
X14.06Y-11.9
X14.16Y-11.8
X14.16Y-11.9
X14.26Y-11.8
X14.26Y-11.9
X14.36Y-11.8
X14.36Y-11.9
X14.46Y-11.8
X14.46Y-11.9
X14.56Y-11.8
X14.56Y-11.9
X14.66Y-11.8
X14.66Y-11.9
X14.76Y-11.8
X14.76Y-11.9
X14.86Y-11.8
X14.86Y-11.9
X14.96Y-11.8
X14.96Y-11.9
X15.06Y-11.8
X15.06Y-11.9
X15.16Y-11.8
X15.16Y-11.9
X15.26Y-11.8
X15.26Y-11.9
X10.9646Y-12.1063
X10.9646Y-12.5984
X11.1614Y-12.1063
X11.1614Y-12.5984
X20.5012Y-10.7693
X20.6012Y-10.7693
X20.7012Y-10.7693
X20.8012Y-10.7693
X20.9012Y-10.7693
X21.0012Y-10.7693
X17.58Y-11.83
X17.58Y-11.93
X17.58Y-12.03
X15.8858Y-12.1063
X15.8858Y-12.5984
X16.0827Y-12.1063
X16.0827Y-12.5984
X18.3071Y-8.5236
X18.3071Y-9.0157
X18.5039Y-8.5236
X18.5039Y-9.0157
X18.3071Y-7.7756
X18.3071Y-8.2677
X18.5039Y-7.7756
X18.5039Y-8.2677
T4
X18.5705Y-11.3165
X18.5705Y-11.9118
X18.6976Y-12.0063
X18.7976Y-12.0063
X18.8976Y-12.0063
X18.9976Y-12.0063
X19.0976Y-12.0063
X19.2248Y-11.3165
X19.2248Y-11.9118
T5
X17.7165Y-12.5984
X20.8661Y-11.063
X20.89Y-12.59
X17.7165Y-7.6772
X20.8661Y-8.6614
X20.0787Y-12.5984
X9.4488Y-7.874
X15.4524Y-11.8529
X9.4488Y-12.5984
X9.4488Y-11.0236
X9.4488Y-9.4488
X20.8661Y-9.8425
X13.169Y-11.8529
X20.0787Y-7.6772
T6
X16.0079Y-8.3337
X16.0079Y-10.9183
X11.0394Y-8.3337
X11.0394Y-10.9183
T7
X20.7512Y-10.3996
X20.75Y-9.2203
X18.8976Y-11.6142
X20.7512Y-8.0374
X20.7512Y-11.5807
T3
G00X17.5394Y-10.3738
M15
G01X17.4606Y-10.3738
M16
G05
G00X17.5394Y-10.61
M15
G01X17.4606Y-10.61
M16
G05
G00X17.685Y-10.4525
M15
G01X17.685Y-10.5313
M16
G05
T0
M30
