G04 #@! TF.GenerationSoftware,KiCad,Pcbnew,6.0.0-rc1-unknown-e7fa02a~66~ubuntu18.04.1*
G04 #@! TF.CreationDate,2020-06-20T12:06:20-07:00
G04 #@! TF.ProjectId,fp2,6670322e-6b69-4636-9164-5f7063625858,rev?*
G04 #@! TF.SameCoordinates,Original*
G04 #@! TF.FileFunction,Legend,Bot*
G04 #@! TF.FilePolarity,Positive*
%FSLAX46Y46*%
G04 Gerber Fmt 4.6, Leading zero omitted, Abs format (unit mm)*
G04 Created by KiCad (PCBNEW 6.0.0-rc1-unknown-e7fa02a~66~ubuntu18.04.1) date Sat 20 Jun 2020 12:06:20 PM PDT*
%MOMM*%
%LPD*%
G04 APERTURE LIST*
%ADD10C,0.150000*%
%ADD11C,0.120000*%
G04 APERTURE END LIST*
D10*
X441515333Y-198318380D02*
X441515333Y-197318380D01*
X441039142Y-198318380D02*
X441039142Y-197318380D01*
X440467714Y-198318380D01*
X440467714Y-197318380D01*
X440134380Y-197318380D02*
X439562952Y-197318380D01*
X439848666Y-198318380D02*
X439848666Y-197318380D01*
X439277238Y-198032666D02*
X438801047Y-198032666D01*
X439372476Y-198318380D02*
X439039142Y-197318380D01*
X438705809Y-198318380D01*
X441396095Y-201112380D02*
X441396095Y-200112380D01*
X440967523Y-200207619D02*
X440919904Y-200160000D01*
X440824666Y-200112380D01*
X440586571Y-200112380D01*
X440491333Y-200160000D01*
X440443714Y-200207619D01*
X440396095Y-200302857D01*
X440396095Y-200398095D01*
X440443714Y-200540952D01*
X441015142Y-201112380D01*
X440396095Y-201112380D01*
X439396095Y-201017142D02*
X439443714Y-201064761D01*
X439586571Y-201112380D01*
X439681809Y-201112380D01*
X439824666Y-201064761D01*
X439919904Y-200969523D01*
X439967523Y-200874285D01*
X440015142Y-200683809D01*
X440015142Y-200540952D01*
X439967523Y-200350476D01*
X439919904Y-200255238D01*
X439824666Y-200160000D01*
X439681809Y-200112380D01*
X439586571Y-200112380D01*
X439443714Y-200160000D01*
X439396095Y-200207619D01*
X439205619Y-201207619D02*
X438443714Y-201207619D01*
X438253238Y-201064761D02*
X438110380Y-201112380D01*
X437872285Y-201112380D01*
X437777047Y-201064761D01*
X437729428Y-201017142D01*
X437681809Y-200921904D01*
X437681809Y-200826666D01*
X437729428Y-200731428D01*
X437777047Y-200683809D01*
X437872285Y-200636190D01*
X438062761Y-200588571D01*
X438158000Y-200540952D01*
X438205619Y-200493333D01*
X438253238Y-200398095D01*
X438253238Y-200302857D01*
X438205619Y-200207619D01*
X438158000Y-200160000D01*
X438062761Y-200112380D01*
X437824666Y-200112380D01*
X437681809Y-200160000D01*
X436681809Y-201017142D02*
X436729428Y-201064761D01*
X436872285Y-201112380D01*
X436967523Y-201112380D01*
X437110380Y-201064761D01*
X437205619Y-200969523D01*
X437253238Y-200874285D01*
X437300857Y-200683809D01*
X437300857Y-200540952D01*
X437253238Y-200350476D01*
X437205619Y-200255238D01*
X437110380Y-200160000D01*
X436967523Y-200112380D01*
X436872285Y-200112380D01*
X436729428Y-200160000D01*
X436681809Y-200207619D01*
X435777047Y-201112380D02*
X436253238Y-201112380D01*
X436253238Y-200112380D01*
X441165904Y-203398380D02*
X441165904Y-202398380D01*
X440737333Y-202493619D02*
X440689714Y-202446000D01*
X440594476Y-202398380D01*
X440356380Y-202398380D01*
X440261142Y-202446000D01*
X440213523Y-202493619D01*
X440165904Y-202588857D01*
X440165904Y-202684095D01*
X440213523Y-202826952D01*
X440784952Y-203398380D01*
X440165904Y-203398380D01*
X439165904Y-203303142D02*
X439213523Y-203350761D01*
X439356380Y-203398380D01*
X439451619Y-203398380D01*
X439594476Y-203350761D01*
X439689714Y-203255523D01*
X439737333Y-203160285D01*
X439784952Y-202969809D01*
X439784952Y-202826952D01*
X439737333Y-202636476D01*
X439689714Y-202541238D01*
X439594476Y-202446000D01*
X439451619Y-202398380D01*
X439356380Y-202398380D01*
X439213523Y-202446000D01*
X439165904Y-202493619D01*
X438023047Y-203350761D02*
X437880190Y-203398380D01*
X437642095Y-203398380D01*
X437546857Y-203350761D01*
X437499238Y-203303142D01*
X437451619Y-203207904D01*
X437451619Y-203112666D01*
X437499238Y-203017428D01*
X437546857Y-202969809D01*
X437642095Y-202922190D01*
X437832571Y-202874571D01*
X437927809Y-202826952D01*
X437975428Y-202779333D01*
X438023047Y-202684095D01*
X438023047Y-202588857D01*
X437975428Y-202493619D01*
X437927809Y-202446000D01*
X437832571Y-202398380D01*
X437594476Y-202398380D01*
X437451619Y-202446000D01*
X437023047Y-203398380D02*
X437023047Y-202398380D01*
X436784952Y-202398380D01*
X436642095Y-202446000D01*
X436546857Y-202541238D01*
X436499238Y-202636476D01*
X436451619Y-202826952D01*
X436451619Y-202969809D01*
X436499238Y-203160285D01*
X436546857Y-203255523D01*
X436642095Y-203350761D01*
X436784952Y-203398380D01*
X437023047Y-203398380D01*
X436070666Y-203112666D02*
X435594476Y-203112666D01*
X436165904Y-203398380D02*
X435832571Y-202398380D01*
X435499238Y-203398380D01*
X451278476Y-299426380D02*
X450659428Y-299426380D01*
X450992761Y-299807333D01*
X450849904Y-299807333D01*
X450754666Y-299854952D01*
X450707047Y-299902571D01*
X450659428Y-299997809D01*
X450659428Y-300235904D01*
X450707047Y-300331142D01*
X450754666Y-300378761D01*
X450849904Y-300426380D01*
X451135619Y-300426380D01*
X451230857Y-300378761D01*
X451278476Y-300331142D01*
X450326095Y-299759714D02*
X450088000Y-300426380D01*
X449849904Y-299759714D01*
X449564190Y-299426380D02*
X448945142Y-299426380D01*
X449278476Y-299807333D01*
X449135619Y-299807333D01*
X449040380Y-299854952D01*
X448992761Y-299902571D01*
X448945142Y-299997809D01*
X448945142Y-300235904D01*
X448992761Y-300331142D01*
X449040380Y-300378761D01*
X449135619Y-300426380D01*
X449421333Y-300426380D01*
X449516571Y-300378761D01*
X449564190Y-300331142D01*
X451627714Y-306141428D02*
X450865809Y-306141428D01*
X451246761Y-306522380D02*
X451246761Y-305760476D01*
X449913428Y-305522380D02*
X450389619Y-305522380D01*
X450437238Y-305998571D01*
X450389619Y-305950952D01*
X450294380Y-305903333D01*
X450056285Y-305903333D01*
X449961047Y-305950952D01*
X449913428Y-305998571D01*
X449865809Y-306093809D01*
X449865809Y-306331904D01*
X449913428Y-306427142D01*
X449961047Y-306474761D01*
X450056285Y-306522380D01*
X450294380Y-306522380D01*
X450389619Y-306474761D01*
X450437238Y-306427142D01*
X449580095Y-305522380D02*
X449246761Y-306522380D01*
X448913428Y-305522380D01*
X473464000Y-308610095D02*
X473416380Y-308514857D01*
X473416380Y-308372000D01*
X473464000Y-308229142D01*
X473559238Y-308133904D01*
X473654476Y-308086285D01*
X473844952Y-308038666D01*
X473987809Y-308038666D01*
X474178285Y-308086285D01*
X474273523Y-308133904D01*
X474368761Y-308229142D01*
X474416380Y-308372000D01*
X474416380Y-308467238D01*
X474368761Y-308610095D01*
X474321142Y-308657714D01*
X473987809Y-308657714D01*
X473987809Y-308467238D01*
X474416380Y-309086285D02*
X473416380Y-309086285D01*
X474416380Y-309657714D01*
X473416380Y-309657714D01*
X474416380Y-310133904D02*
X473416380Y-310133904D01*
X473416380Y-310372000D01*
X473464000Y-310514857D01*
X473559238Y-310610095D01*
X473654476Y-310657714D01*
X473844952Y-310705333D01*
X473987809Y-310705333D01*
X474178285Y-310657714D01*
X474273523Y-310610095D01*
X474368761Y-310514857D01*
X474416380Y-310372000D01*
X474416380Y-310133904D01*
X484640000Y-309372095D02*
X484592380Y-309276857D01*
X484592380Y-309134000D01*
X484640000Y-308991142D01*
X484735238Y-308895904D01*
X484830476Y-308848285D01*
X485020952Y-308800666D01*
X485163809Y-308800666D01*
X485354285Y-308848285D01*
X485449523Y-308895904D01*
X485544761Y-308991142D01*
X485592380Y-309134000D01*
X485592380Y-309229238D01*
X485544761Y-309372095D01*
X485497142Y-309419714D01*
X485163809Y-309419714D01*
X485163809Y-309229238D01*
X485592380Y-309848285D02*
X484592380Y-309848285D01*
X485592380Y-310419714D01*
X484592380Y-310419714D01*
X485592380Y-310895904D02*
X484592380Y-310895904D01*
X484592380Y-311134000D01*
X484640000Y-311276857D01*
X484735238Y-311372095D01*
X484830476Y-311419714D01*
X485020952Y-311467333D01*
X485163809Y-311467333D01*
X485354285Y-311419714D01*
X485449523Y-311372095D01*
X485544761Y-311276857D01*
X485592380Y-311134000D01*
X485592380Y-310895904D01*
X477115142Y-308911714D02*
X477162761Y-308864095D01*
X477210380Y-308721238D01*
X477210380Y-308626000D01*
X477162761Y-308483142D01*
X477067523Y-308387904D01*
X476972285Y-308340285D01*
X476781809Y-308292666D01*
X476638952Y-308292666D01*
X476448476Y-308340285D01*
X476353238Y-308387904D01*
X476258000Y-308483142D01*
X476210380Y-308626000D01*
X476210380Y-308721238D01*
X476258000Y-308864095D01*
X476305619Y-308911714D01*
X477210380Y-309340285D02*
X476210380Y-309340285D01*
X476686571Y-309340285D02*
X476686571Y-309911714D01*
X477210380Y-309911714D02*
X476210380Y-309911714D01*
X476686571Y-310721238D02*
X476734190Y-310864095D01*
X476781809Y-310911714D01*
X476877047Y-310959333D01*
X477019904Y-310959333D01*
X477115142Y-310911714D01*
X477162761Y-310864095D01*
X477210380Y-310768857D01*
X477210380Y-310387904D01*
X476210380Y-310387904D01*
X476210380Y-310721238D01*
X476258000Y-310816476D01*
X476305619Y-310864095D01*
X476400857Y-310911714D01*
X476496095Y-310911714D01*
X476591333Y-310864095D01*
X476638952Y-310816476D01*
X476686571Y-310721238D01*
X476686571Y-310387904D01*
X483211142Y-308983142D02*
X483258761Y-308935523D01*
X483306380Y-308792666D01*
X483306380Y-308697428D01*
X483258761Y-308554571D01*
X483163523Y-308459333D01*
X483068285Y-308411714D01*
X482877809Y-308364095D01*
X482734952Y-308364095D01*
X482544476Y-308411714D01*
X482449238Y-308459333D01*
X482354000Y-308554571D01*
X482306380Y-308697428D01*
X482306380Y-308792666D01*
X482354000Y-308935523D01*
X482401619Y-308983142D01*
X483306380Y-309411714D02*
X482306380Y-309411714D01*
X482782571Y-309411714D02*
X482782571Y-309983142D01*
X483306380Y-309983142D02*
X482306380Y-309983142D01*
X483020666Y-310411714D02*
X483020666Y-310887904D01*
X483306380Y-310316476D02*
X482306380Y-310649809D01*
X483306380Y-310983142D01*
X440943904Y-194572000D02*
X441039142Y-194524380D01*
X441182000Y-194524380D01*
X441324857Y-194572000D01*
X441420095Y-194667238D01*
X441467714Y-194762476D01*
X441515333Y-194952952D01*
X441515333Y-195095809D01*
X441467714Y-195286285D01*
X441420095Y-195381523D01*
X441324857Y-195476761D01*
X441182000Y-195524380D01*
X441086761Y-195524380D01*
X440943904Y-195476761D01*
X440896285Y-195429142D01*
X440896285Y-195095809D01*
X441086761Y-195095809D01*
X440467714Y-195524380D02*
X440467714Y-194524380D01*
X439896285Y-195524380D01*
X439896285Y-194524380D01*
X439420095Y-195524380D02*
X439420095Y-194524380D01*
X439182000Y-194524380D01*
X439039142Y-194572000D01*
X438943904Y-194667238D01*
X438896285Y-194762476D01*
X438848666Y-194952952D01*
X438848666Y-195095809D01*
X438896285Y-195286285D01*
X438943904Y-195381523D01*
X439039142Y-195476761D01*
X439182000Y-195524380D01*
X439420095Y-195524380D01*
X441293142Y-206065428D02*
X440531238Y-206065428D01*
X440912190Y-206446380D02*
X440912190Y-205684476D01*
X439578857Y-205446380D02*
X440055047Y-205446380D01*
X440102666Y-205922571D01*
X440055047Y-205874952D01*
X439959809Y-205827333D01*
X439721714Y-205827333D01*
X439626476Y-205874952D01*
X439578857Y-205922571D01*
X439531238Y-206017809D01*
X439531238Y-206255904D01*
X439578857Y-206351142D01*
X439626476Y-206398761D01*
X439721714Y-206446380D01*
X439959809Y-206446380D01*
X440055047Y-206398761D01*
X440102666Y-206351142D01*
X446325333Y-209383761D02*
X446182476Y-209431380D01*
X445944380Y-209431380D01*
X445849142Y-209383761D01*
X445801523Y-209336142D01*
X445753904Y-209240904D01*
X445753904Y-209145666D01*
X445801523Y-209050428D01*
X445849142Y-209002809D01*
X445944380Y-208955190D01*
X446134857Y-208907571D01*
X446230095Y-208859952D01*
X446277714Y-208812333D01*
X446325333Y-208717095D01*
X446325333Y-208621857D01*
X446277714Y-208526619D01*
X446230095Y-208479000D01*
X446134857Y-208431380D01*
X445896761Y-208431380D01*
X445753904Y-208479000D01*
X444896761Y-209383761D02*
X444992000Y-209431380D01*
X445182476Y-209431380D01*
X445277714Y-209383761D01*
X445325333Y-209336142D01*
X445372952Y-209240904D01*
X445372952Y-208955190D01*
X445325333Y-208859952D01*
X445277714Y-208812333D01*
X445182476Y-208764714D01*
X444992000Y-208764714D01*
X444896761Y-208812333D01*
X444468190Y-209431380D02*
X444468190Y-208764714D01*
X444468190Y-208955190D02*
X444420571Y-208859952D01*
X444372952Y-208812333D01*
X444277714Y-208764714D01*
X444182476Y-208764714D01*
X443468190Y-209383761D02*
X443563428Y-209431380D01*
X443753904Y-209431380D01*
X443849142Y-209383761D01*
X443896761Y-209288523D01*
X443896761Y-208907571D01*
X443849142Y-208812333D01*
X443753904Y-208764714D01*
X443563428Y-208764714D01*
X443468190Y-208812333D01*
X443420571Y-208907571D01*
X443420571Y-209002809D01*
X443896761Y-209098047D01*
X442611047Y-209383761D02*
X442706285Y-209431380D01*
X442896761Y-209431380D01*
X442992000Y-209383761D01*
X443039619Y-209288523D01*
X443039619Y-208907571D01*
X442992000Y-208812333D01*
X442896761Y-208764714D01*
X442706285Y-208764714D01*
X442611047Y-208812333D01*
X442563428Y-208907571D01*
X442563428Y-209002809D01*
X443039619Y-209098047D01*
X442134857Y-208764714D02*
X442134857Y-209431380D01*
X442134857Y-208859952D02*
X442087238Y-208812333D01*
X441992000Y-208764714D01*
X441849142Y-208764714D01*
X441753904Y-208812333D01*
X441706285Y-208907571D01*
X441706285Y-209431380D01*
X445087238Y-211081380D02*
X445087238Y-210081380D01*
X444706285Y-210081380D01*
X444611047Y-210129000D01*
X444563428Y-210176619D01*
X444515809Y-210271857D01*
X444515809Y-210414714D01*
X444563428Y-210509952D01*
X444611047Y-210557571D01*
X444706285Y-210605190D01*
X445087238Y-210605190D01*
X444182476Y-210414714D02*
X443992000Y-211081380D01*
X443801523Y-210605190D01*
X443611047Y-211081380D01*
X443420571Y-210414714D01*
X443039619Y-211081380D02*
X443039619Y-210414714D01*
X443039619Y-210605190D02*
X442992000Y-210509952D01*
X442944380Y-210462333D01*
X442849142Y-210414714D01*
X442753904Y-210414714D01*
D11*
X445202000Y-299152000D02*
X447862000Y-299152000D01*
X445202000Y-304292000D02*
X445202000Y-299152000D01*
X447862000Y-304292000D02*
X447862000Y-299152000D01*
X445202000Y-304292000D02*
X447862000Y-304292000D01*
X445202000Y-305562000D02*
X445202000Y-306892000D01*
X445202000Y-306892000D02*
X446532000Y-306892000D01*
X440750000Y-270594000D02*
X439700000Y-270594000D01*
X439700000Y-269544000D02*
X439700000Y-270594000D01*
X449100000Y-264494000D02*
X449100000Y-255694000D01*
X449100000Y-255694000D02*
X439900000Y-255694000D01*
X446400000Y-270394000D02*
X449100000Y-270394000D01*
X449100000Y-270394000D02*
X449100000Y-268494000D01*
X439900000Y-255694000D02*
X439900000Y-270394000D01*
X439900000Y-270394000D02*
X442500000Y-270394000D01*
X388934000Y-303590000D02*
X388934000Y-300990000D01*
X388934000Y-303590000D02*
X338014000Y-303590000D01*
X338014000Y-303590000D02*
X338014000Y-298390000D01*
X386334000Y-298390000D02*
X338014000Y-298390000D01*
X386334000Y-300990000D02*
X386334000Y-298390000D01*
X388934000Y-300990000D02*
X386334000Y-300990000D01*
X388934000Y-298390000D02*
X387604000Y-298390000D01*
X388934000Y-299720000D02*
X388934000Y-298390000D01*
X436502000Y-242994000D02*
X433702000Y-242994000D01*
X433702000Y-242994000D02*
X433702000Y-217254000D01*
X433702000Y-217254000D02*
X436502000Y-217254000D01*
X436502000Y-217254000D02*
X436502000Y-242994000D01*
X436502000Y-240284000D02*
X433702000Y-240284000D01*
X438534000Y-277030000D02*
X435734000Y-277030000D01*
X435734000Y-277030000D02*
X435734000Y-251290000D01*
X435734000Y-251290000D02*
X438534000Y-251290000D01*
X438534000Y-251290000D02*
X438534000Y-277030000D01*
X438534000Y-274320000D02*
X435734000Y-274320000D01*
X509400000Y-225552000D02*
X506600000Y-225552000D01*
X509400000Y-202522000D02*
X509400000Y-228262000D01*
X506600000Y-202522000D02*
X509400000Y-202522000D01*
X506600000Y-228262000D02*
X506600000Y-202522000D01*
X509400000Y-228262000D02*
X506600000Y-228262000D01*
X453774000Y-250868000D02*
X450974000Y-250868000D01*
X450974000Y-250868000D02*
X450974000Y-225128000D01*
X450974000Y-225128000D02*
X453774000Y-225128000D01*
X453774000Y-225128000D02*
X453774000Y-250868000D01*
X453774000Y-248158000D02*
X450974000Y-248158000D01*
X416690000Y-254762000D02*
X413890000Y-254762000D01*
X416690000Y-231732000D02*
X416690000Y-257472000D01*
X413890000Y-231732000D02*
X416690000Y-231732000D01*
X413890000Y-257472000D02*
X413890000Y-231732000D01*
X416690000Y-257472000D02*
X413890000Y-257472000D01*
X424450000Y-216856000D02*
G75*
G03X426450000Y-216856000I1000000J0D01*
G01*
X426450000Y-216856000D02*
X428100000Y-216856000D01*
X428100000Y-216856000D02*
X428100000Y-252536000D01*
X428100000Y-252536000D02*
X422800000Y-252536000D01*
X422800000Y-252536000D02*
X422800000Y-216856000D01*
X422800000Y-216856000D02*
X424450000Y-216856000D01*
X430590000Y-216796000D02*
X430590000Y-252596000D01*
X430590000Y-252596000D02*
X420310000Y-252596000D01*
X420310000Y-252596000D02*
X420310000Y-216796000D01*
X420310000Y-216796000D02*
X430590000Y-216796000D01*
X442408000Y-193996000D02*
X445068000Y-193996000D01*
X442408000Y-204216000D02*
X442408000Y-193996000D01*
X445068000Y-204216000D02*
X445068000Y-193996000D01*
X442408000Y-204216000D02*
X445068000Y-204216000D01*
X442408000Y-205486000D02*
X442408000Y-206816000D01*
X442408000Y-206816000D02*
X443738000Y-206816000D01*
X423238000Y-266774000D02*
X426988000Y-266774000D01*
X433758000Y-266774000D02*
X430008000Y-266774000D01*
X433758000Y-276229563D02*
X433758000Y-266774000D01*
X423238000Y-276229563D02*
X423238000Y-266774000D01*
X424302437Y-277294000D02*
X426988000Y-277294000D01*
X432693563Y-277294000D02*
X430008000Y-277294000D01*
X432693563Y-277294000D02*
X433758000Y-276229563D01*
X424302437Y-277294000D02*
X423238000Y-276229563D01*
X431258000Y-278784000D02*
X431258000Y-277534000D01*
X431883000Y-278159000D02*
X430633000Y-278159000D01*
X503464000Y-273244000D02*
X504714000Y-273244000D01*
X503464000Y-293684000D02*
X503464000Y-273244000D01*
X507964000Y-293684000D02*
X503464000Y-293684000D01*
X507964000Y-273244000D02*
X507964000Y-293684000D01*
X506714000Y-273244000D02*
X507964000Y-273244000D01*
X504714000Y-273244000D02*
G75*
G03X506714000Y-273244000I1000000J0D01*
G01*
X457724000Y-272736000D02*
G75*
G03X459724000Y-272736000I1000000J0D01*
G01*
X459724000Y-272736000D02*
X460974000Y-272736000D01*
X460974000Y-272736000D02*
X460974000Y-293176000D01*
X460974000Y-293176000D02*
X456474000Y-293176000D01*
X456474000Y-293176000D02*
X456474000Y-272736000D01*
X456474000Y-272736000D02*
X457724000Y-272736000D01*
D10*
X446865333Y-307344380D02*
X446865333Y-308058666D01*
X446912952Y-308201523D01*
X447008190Y-308296761D01*
X447151047Y-308344380D01*
X447246285Y-308344380D01*
X446484380Y-307344380D02*
X445865333Y-307344380D01*
X446198666Y-307725333D01*
X446055809Y-307725333D01*
X445960571Y-307772952D01*
X445912952Y-307820571D01*
X445865333Y-307915809D01*
X445865333Y-308153904D01*
X445912952Y-308249142D01*
X445960571Y-308296761D01*
X446055809Y-308344380D01*
X446341523Y-308344380D01*
X446436761Y-308296761D01*
X446484380Y-308249142D01*
X449702380Y-260710666D02*
X450416666Y-260710666D01*
X450559523Y-260663047D01*
X450654761Y-260567809D01*
X450702380Y-260424952D01*
X450702380Y-260329714D01*
X450702380Y-261710666D02*
X450702380Y-261139238D01*
X450702380Y-261424952D02*
X449702380Y-261424952D01*
X449845238Y-261329714D01*
X449940476Y-261234476D01*
X449988095Y-261139238D01*
X389826380Y-300656666D02*
X390540666Y-300656666D01*
X390683523Y-300609047D01*
X390778761Y-300513809D01*
X390826380Y-300370952D01*
X390826380Y-300275714D01*
X389921619Y-301085238D02*
X389874000Y-301132857D01*
X389826380Y-301228095D01*
X389826380Y-301466190D01*
X389874000Y-301561428D01*
X389921619Y-301609047D01*
X390016857Y-301656666D01*
X390112095Y-301656666D01*
X390254952Y-301609047D01*
X390826380Y-301037619D01*
X390826380Y-301656666D01*
X439110380Y-229687523D02*
X438634190Y-229354190D01*
X439110380Y-229116095D02*
X438110380Y-229116095D01*
X438110380Y-229497047D01*
X438158000Y-229592285D01*
X438205619Y-229639904D01*
X438300857Y-229687523D01*
X438443714Y-229687523D01*
X438538952Y-229639904D01*
X438586571Y-229592285D01*
X438634190Y-229497047D01*
X438634190Y-229116095D01*
X439110380Y-230116095D02*
X438110380Y-230116095D01*
X439110380Y-230687523D01*
X438110380Y-230687523D01*
X439110380Y-231687523D02*
X439110380Y-231116095D01*
X439110380Y-231401809D02*
X438110380Y-231401809D01*
X438253238Y-231306571D01*
X438348476Y-231211333D01*
X438396095Y-231116095D01*
X439986380Y-262199523D02*
X439510190Y-261866190D01*
X439986380Y-261628095D02*
X438986380Y-261628095D01*
X438986380Y-262009047D01*
X439034000Y-262104285D01*
X439081619Y-262151904D01*
X439176857Y-262199523D01*
X439319714Y-262199523D01*
X439414952Y-262151904D01*
X439462571Y-262104285D01*
X439510190Y-262009047D01*
X439510190Y-261628095D01*
X439986380Y-262628095D02*
X438986380Y-262628095D01*
X439986380Y-263199523D01*
X438986380Y-263199523D01*
X439081619Y-263628095D02*
X439034000Y-263675714D01*
X438986380Y-263770952D01*
X438986380Y-264009047D01*
X439034000Y-264104285D01*
X439081619Y-264151904D01*
X439176857Y-264199523D01*
X439272095Y-264199523D01*
X439414952Y-264151904D01*
X439986380Y-263580476D01*
X439986380Y-264199523D01*
X505404380Y-213177523D02*
X504928190Y-212844190D01*
X505404380Y-212606095D02*
X504404380Y-212606095D01*
X504404380Y-212987047D01*
X504452000Y-213082285D01*
X504499619Y-213129904D01*
X504594857Y-213177523D01*
X504737714Y-213177523D01*
X504832952Y-213129904D01*
X504880571Y-213082285D01*
X504928190Y-212987047D01*
X504928190Y-212606095D01*
X505404380Y-213606095D02*
X504404380Y-213606095D01*
X505404380Y-214177523D01*
X504404380Y-214177523D01*
X504404380Y-214558476D02*
X504404380Y-215177523D01*
X504785333Y-214844190D01*
X504785333Y-214987047D01*
X504832952Y-215082285D01*
X504880571Y-215129904D01*
X504975809Y-215177523D01*
X505213904Y-215177523D01*
X505309142Y-215129904D01*
X505356761Y-215082285D01*
X505404380Y-214987047D01*
X505404380Y-214701333D01*
X505356761Y-214606095D01*
X505309142Y-214558476D01*
X456382380Y-237053523D02*
X455906190Y-236720190D01*
X456382380Y-236482095D02*
X455382380Y-236482095D01*
X455382380Y-236863047D01*
X455430000Y-236958285D01*
X455477619Y-237005904D01*
X455572857Y-237053523D01*
X455715714Y-237053523D01*
X455810952Y-237005904D01*
X455858571Y-236958285D01*
X455906190Y-236863047D01*
X455906190Y-236482095D01*
X456382380Y-237482095D02*
X455382380Y-237482095D01*
X456382380Y-238053523D01*
X455382380Y-238053523D01*
X455715714Y-238958285D02*
X456382380Y-238958285D01*
X455334761Y-238720190D02*
X456049047Y-238482095D01*
X456049047Y-239101142D01*
X418142380Y-242641523D02*
X417666190Y-242308190D01*
X418142380Y-242070095D02*
X417142380Y-242070095D01*
X417142380Y-242451047D01*
X417190000Y-242546285D01*
X417237619Y-242593904D01*
X417332857Y-242641523D01*
X417475714Y-242641523D01*
X417570952Y-242593904D01*
X417618571Y-242546285D01*
X417666190Y-242451047D01*
X417666190Y-242070095D01*
X418142380Y-243070095D02*
X417142380Y-243070095D01*
X418142380Y-243641523D01*
X417142380Y-243641523D01*
X417142380Y-244593904D02*
X417142380Y-244117714D01*
X417618571Y-244070095D01*
X417570952Y-244117714D01*
X417523333Y-244212952D01*
X417523333Y-244451047D01*
X417570952Y-244546285D01*
X417618571Y-244593904D01*
X417713809Y-244641523D01*
X417951904Y-244641523D01*
X418047142Y-244593904D01*
X418094761Y-244546285D01*
X418142380Y-244451047D01*
X418142380Y-244212952D01*
X418094761Y-244117714D01*
X418047142Y-244070095D01*
X426465904Y-212050380D02*
X426465904Y-212859904D01*
X426418285Y-212955142D01*
X426370666Y-213002761D01*
X426275428Y-213050380D01*
X426084952Y-213050380D01*
X425989714Y-213002761D01*
X425942095Y-212955142D01*
X425894476Y-212859904D01*
X425894476Y-212050380D01*
X424894476Y-213050380D02*
X425465904Y-213050380D01*
X425180190Y-213050380D02*
X425180190Y-212050380D01*
X425275428Y-212193238D01*
X425370666Y-212288476D01*
X425465904Y-212336095D01*
X444071333Y-207268380D02*
X444071333Y-207982666D01*
X444118952Y-208125523D01*
X444214190Y-208220761D01*
X444357047Y-208268380D01*
X444452285Y-208268380D01*
X443166571Y-207601714D02*
X443166571Y-208268380D01*
X443404666Y-207220761D02*
X443642761Y-207935047D01*
X443023714Y-207935047D01*
X435055142Y-271867333D02*
X435102761Y-271819714D01*
X435150380Y-271676857D01*
X435150380Y-271581619D01*
X435102761Y-271438761D01*
X435007523Y-271343523D01*
X434912285Y-271295904D01*
X434721809Y-271248285D01*
X434578952Y-271248285D01*
X434388476Y-271295904D01*
X434293238Y-271343523D01*
X434198000Y-271438761D01*
X434150380Y-271581619D01*
X434150380Y-271676857D01*
X434198000Y-271819714D01*
X434245619Y-271867333D01*
X435150380Y-272819714D02*
X435150380Y-272248285D01*
X435150380Y-272534000D02*
X434150380Y-272534000D01*
X434293238Y-272438761D01*
X434388476Y-272343523D01*
X434436095Y-272248285D01*
X506475904Y-271696380D02*
X506475904Y-272505904D01*
X506428285Y-272601142D01*
X506380666Y-272648761D01*
X506285428Y-272696380D01*
X506094952Y-272696380D01*
X505999714Y-272648761D01*
X505952095Y-272601142D01*
X505904476Y-272505904D01*
X505904476Y-271696380D01*
X505475904Y-271791619D02*
X505428285Y-271744000D01*
X505333047Y-271696380D01*
X505094952Y-271696380D01*
X504999714Y-271744000D01*
X504952095Y-271791619D01*
X504904476Y-271886857D01*
X504904476Y-271982095D01*
X504952095Y-272124952D01*
X505523523Y-272696380D01*
X504904476Y-272696380D01*
X459485904Y-271188380D02*
X459485904Y-271997904D01*
X459438285Y-272093142D01*
X459390666Y-272140761D01*
X459295428Y-272188380D01*
X459104952Y-272188380D01*
X459009714Y-272140761D01*
X458962095Y-272093142D01*
X458914476Y-271997904D01*
X458914476Y-271188380D01*
X458533523Y-271188380D02*
X457914476Y-271188380D01*
X458247809Y-271569333D01*
X458104952Y-271569333D01*
X458009714Y-271616952D01*
X457962095Y-271664571D01*
X457914476Y-271759809D01*
X457914476Y-271997904D01*
X457962095Y-272093142D01*
X458009714Y-272140761D01*
X458104952Y-272188380D01*
X458390666Y-272188380D01*
X458485904Y-272140761D01*
X458533523Y-272093142D01*
M02*
