G04 #@! TF.GenerationSoftware,KiCad,Pcbnew,6.0.0-rc1-unknown-e7fa02a~66~ubuntu18.04.1*
G04 #@! TF.CreationDate,2020-06-20T12:06:20-07:00
G04 #@! TF.ProjectId,fp2,6670322e-6b69-4636-9164-5f7063625858,rev?*
G04 #@! TF.SameCoordinates,Original*
G04 #@! TF.FileFunction,Paste,Bot*
G04 #@! TF.FilePolarity,Positive*
%FSLAX46Y46*%
G04 Gerber Fmt 4.6, Leading zero omitted, Abs format (unit mm)*
G04 Created by KiCad (PCBNEW 6.0.0-rc1-unknown-e7fa02a~66~ubuntu18.04.1) date Sat 20 Jun 2020 12:06:20 PM PDT*
%MOMM*%
%LPD*%
G04 APERTURE LIST*
%ADD10C,0.100000*%
%ADD11C,2.500000*%
G04 APERTURE END LIST*
D10*
G36*
X429522504Y-274035204D02*
G01*
X429546773Y-274038804D01*
X429570571Y-274044765D01*
X429593671Y-274053030D01*
X429615849Y-274063520D01*
X429636893Y-274076133D01*
X429656598Y-274090747D01*
X429674777Y-274107223D01*
X429691253Y-274125402D01*
X429705867Y-274145107D01*
X429718480Y-274166151D01*
X429728970Y-274188329D01*
X429737235Y-274211429D01*
X429743196Y-274235227D01*
X429746796Y-274259496D01*
X429748000Y-274284000D01*
X429748000Y-277784000D01*
X429746796Y-277808504D01*
X429743196Y-277832773D01*
X429737235Y-277856571D01*
X429728970Y-277879671D01*
X429718480Y-277901849D01*
X429705867Y-277922893D01*
X429691253Y-277942598D01*
X429674777Y-277960777D01*
X429656598Y-277977253D01*
X429636893Y-277991867D01*
X429615849Y-278004480D01*
X429593671Y-278014970D01*
X429570571Y-278023235D01*
X429546773Y-278029196D01*
X429522504Y-278032796D01*
X429498000Y-278034000D01*
X427498000Y-278034000D01*
X427473496Y-278032796D01*
X427449227Y-278029196D01*
X427425429Y-278023235D01*
X427402329Y-278014970D01*
X427380151Y-278004480D01*
X427359107Y-277991867D01*
X427339402Y-277977253D01*
X427321223Y-277960777D01*
X427304747Y-277942598D01*
X427290133Y-277922893D01*
X427277520Y-277901849D01*
X427267030Y-277879671D01*
X427258765Y-277856571D01*
X427252804Y-277832773D01*
X427249204Y-277808504D01*
X427248000Y-277784000D01*
X427248000Y-274284000D01*
X427249204Y-274259496D01*
X427252804Y-274235227D01*
X427258765Y-274211429D01*
X427267030Y-274188329D01*
X427277520Y-274166151D01*
X427290133Y-274145107D01*
X427304747Y-274125402D01*
X427321223Y-274107223D01*
X427339402Y-274090747D01*
X427359107Y-274076133D01*
X427380151Y-274063520D01*
X427402329Y-274053030D01*
X427425429Y-274044765D01*
X427449227Y-274038804D01*
X427473496Y-274035204D01*
X427498000Y-274034000D01*
X429498000Y-274034000D01*
X429522504Y-274035204D01*
X429522504Y-274035204D01*
G37*
D11*
X428498000Y-276034000D03*
D10*
G36*
X429522504Y-266035204D02*
G01*
X429546773Y-266038804D01*
X429570571Y-266044765D01*
X429593671Y-266053030D01*
X429615849Y-266063520D01*
X429636893Y-266076133D01*
X429656598Y-266090747D01*
X429674777Y-266107223D01*
X429691253Y-266125402D01*
X429705867Y-266145107D01*
X429718480Y-266166151D01*
X429728970Y-266188329D01*
X429737235Y-266211429D01*
X429743196Y-266235227D01*
X429746796Y-266259496D01*
X429748000Y-266284000D01*
X429748000Y-269784000D01*
X429746796Y-269808504D01*
X429743196Y-269832773D01*
X429737235Y-269856571D01*
X429728970Y-269879671D01*
X429718480Y-269901849D01*
X429705867Y-269922893D01*
X429691253Y-269942598D01*
X429674777Y-269960777D01*
X429656598Y-269977253D01*
X429636893Y-269991867D01*
X429615849Y-270004480D01*
X429593671Y-270014970D01*
X429570571Y-270023235D01*
X429546773Y-270029196D01*
X429522504Y-270032796D01*
X429498000Y-270034000D01*
X427498000Y-270034000D01*
X427473496Y-270032796D01*
X427449227Y-270029196D01*
X427425429Y-270023235D01*
X427402329Y-270014970D01*
X427380151Y-270004480D01*
X427359107Y-269991867D01*
X427339402Y-269977253D01*
X427321223Y-269960777D01*
X427304747Y-269942598D01*
X427290133Y-269922893D01*
X427277520Y-269901849D01*
X427267030Y-269879671D01*
X427258765Y-269856571D01*
X427252804Y-269832773D01*
X427249204Y-269808504D01*
X427248000Y-269784000D01*
X427248000Y-266284000D01*
X427249204Y-266259496D01*
X427252804Y-266235227D01*
X427258765Y-266211429D01*
X427267030Y-266188329D01*
X427277520Y-266166151D01*
X427290133Y-266145107D01*
X427304747Y-266125402D01*
X427321223Y-266107223D01*
X427339402Y-266090747D01*
X427359107Y-266076133D01*
X427380151Y-266063520D01*
X427402329Y-266053030D01*
X427425429Y-266044765D01*
X427449227Y-266038804D01*
X427473496Y-266035204D01*
X427498000Y-266034000D01*
X429498000Y-266034000D01*
X429522504Y-266035204D01*
X429522504Y-266035204D01*
G37*
D11*
X428498000Y-268034000D03*
M02*
